<?xml version="1.0" standalone="no"?>
<!DOCTYPE svg PUBLIC "-//W3C//DTD SVG 20010904//EN"
 "http://www.w3.org/TR/2001/REC-SVG-20010904/DTD/svg10.dtd">
<svg version="1.0" xmlns="http://www.w3.org/2000/svg"
 width="469.000000pt" height="532.000000pt" viewBox="0 0 469.000000 532.000000"
 preserveAspectRatio="xMidYMid meet">

<g transform="translate(0.000000,532.000000) scale(0.100000,-0.100000)"
fill="#006600" stroke="none">
<path d="M2139 5240 c-651 -59 -1188 -345 -1558 -830 -128 -168 -255 -401
-328 -600 -51 -141 -110 -392 -130 -553 -35 -286 -19 -672 37 -878 11 -41 27
-101 35 -134 39 -162 211 -535 296 -644 10 -13 19 -27 19 -31 0 -5 30 -52 68
-105 37 -53 74 -107 82 -119 32 -46 171 -226 211 -272 23 -27 60 -71 83 -98
56 -68 349 -361 416 -417 239 -200 556 -385 781 -456 118 -37 280 -39 389 -5
108 34 357 158 464 231 25 17 67 45 94 63 63 42 194 141 224 170 14 13 62 56
107 97 44 41 109 103 144 139 34 36 80 84 102 106 22 23 56 61 75 86 19 24 51
62 71 84 71 82 197 253 299 406 109 163 140 216 204 345 226 457 301 880 245
1390 -17 159 -63 380 -104 500 -153 451 -385 798 -708 1058 -138 111 -217 162
-356 233 -118 59 -317 133 -456 168 -227 57 -581 86 -806 66z m426 -60 c202
-21 542 -100 528 -123 -3 -6 -1 -7 5 -3 13 8 103 -17 160 -44 23 -11 45 -20
50 -20 5 0 21 -11 35 -24 15 -14 28 -19 30 -13 2 6 11 3 23 -9 12 -10 27 -20
34 -22 8 -2 26 -12 41 -23 15 -10 31 -19 37 -19 5 0 30 -16 55 -35 25 -19 48
-35 51 -35 13 0 131 -102 131 -113 0 -7 6 -12 13 -12 29 0 289 -277 284 -302
-2 -10 1 -12 9 -7 9 5 10 2 6 -9 -4 -10 -2 -16 5 -14 6 1 21 -14 34 -33 12
-19 29 -42 37 -51 25 -29 87 -136 90 -157 2 -12 7 -25 12 -29 4 -5 5 -2 1 5
-4 6 -2 12 3 12 6 0 11 -5 11 -11 0 -17 53 -132 67 -147 7 -7 13 -23 13 -36 0
-12 4 -26 8 -31 9 -10 41 -92 43 -110 1 -5 8 -19 15 -30 8 -11 14 -28 14 -37
0 -10 16 -72 35 -137 45 -150 75 -378 82 -619 5 -157 3 -204 -17 -335 -12 -84
-30 -181 -40 -217 -45 -164 -83 -287 -94 -305 -7 -11 -20 -42 -31 -70 -38
-105 -175 -365 -216 -412 -9 -10 -23 -30 -30 -45 -12 -24 -98 -151 -154 -228
-46 -64 -189 -245 -214 -272 -9 -9 -36 -40 -61 -68 -54 -62 -211 -221 -301
-304 -106 -98 -291 -246 -308 -246 -5 0 -22 -10 -38 -23 -65 -54 -300 -182
-433 -237 -83 -34 -158 -50 -235 -50 -69 0 -188 22 -209 39 -6 5 -29 14 -51
21 -75 23 -268 124 -434 225 -42 26 -155 109 -206 152 -22 19 -60 51 -84 71
-77 66 -351 344 -409 416 -8 9 -35 42 -61 74 -43 52 -86 108 -163 211 -30 41
-145 211 -193 286 -119 186 -228 424 -288 625 -47 160 -55 195 -77 341 -20
127 -22 171 -17 345 7 273 46 553 94 674 3 8 7 20 9 25 30 117 54 185 65 185
5 0 9 8 9 18 0 30 26 93 35 85 4 -5 5 -3 2 4 -7 11 73 182 97 206 6 6 21 32
33 57 12 25 33 59 47 75 14 17 29 38 32 48 3 10 15 28 27 41 12 13 39 47 60
75 22 29 43 48 49 45 6 -4 8 -2 4 4 -7 12 156 182 175 182 7 0 10 3 6 6 -10
10 61 66 74 58 7 -4 9 -3 5 4 -9 15 28 33 51 26 15 -5 15 -4 3 5 -17 12 -19
10 49 55 30 19 59 32 64 29 6 -3 7 -1 3 5 -4 7 4 17 21 24 15 6 35 17 43 24
26 21 244 126 256 124 4 -1 10 2 13 7 3 4 34 18 68 29 46 17 64 19 73 10 10
-8 11 -8 6 2 -4 7 0 14 11 18 10 3 26 10 35 15 10 5 46 13 80 19 35 5 97 17
138 26 188 40 468 55 665 34z"/>
<path d="M1980 5150 c-9 -6 -10 -10 -3 -10 6 0 15 5 18 10 8 12 4 12 -15 0z"/>
<path d="M3287 4979 c7 -7 15 -10 18 -7 3 3 -2 9 -12 12 -14 6 -15 5 -6 -5z"/>
<path d="M1670 4876 c0 -2 7 -7 16 -10 8 -3 12 -2 9 4 -6 10 -25 14 -25 6z"/>
<path d="M3170 4806 c0 -2 8 -10 18 -17 15 -13 16 -12 3 4 -13 16 -21 21 -21
13z"/>
<path d="M3330 4706 c0 -2 7 -6 15 -10 8 -3 15 -1 15 4 0 6 -7 10 -15 10 -8 0
-15 -2 -15 -4z"/>
<path d="M940 4690 c-9 -6 -10 -10 -3 -10 6 0 15 5 18 10 8 12 4 12 -15 0z"/>
<path d="M3487 4599 c7 -7 15 -10 18 -7 3 3 -2 9 -12 12 -14 6 -15 5 -6 -5z"/>
<path d="M1103 4525 c0 -8 4 -12 9 -9 5 3 6 10 3 15 -9 13 -12 11 -12 -6z"/>
<path d="M4000 4410 c-9 -6 -10 -10 -3 -10 6 0 15 5 18 10 8 12 4 12 -15 0z"/>
<path d="M4200 4053 c-13 -15 -12 -16 4 -10 10 4 20 7 22 7 2 0 4 5 4 10 0 15
-13 12 -30 -7z"/>
<path d="M785 2654 c-11 -2 -40 -10 -65 -16 -101 -24 -192 -105 -230 -204 -61
-159 1 -404 162 -639 47 -68 280 -305 348 -353 247 -175 458 -262 710 -293
155 -18 260 1 332 63 67 56 57 300 -20 533 -68 208 -159 351 -329 521 -64 63
-119 114 -123 114 -5 0 -23 12 -41 28 -41 35 -153 107 -204 131 -131 61 -164
74 -243 92 -86 19 -258 33 -297 23z m278 -183 c37 -11 90 -36 118 -55 27 -20
53 -36 57 -36 9 0 44 -36 56 -58 4 -7 -17 2 -46 19 -29 18 -82 42 -118 54
l-65 22 -172 -173 c-95 -96 -176 -174 -182 -174 -5 0 -13 -9 -16 -20 -3 -11
-10 -20 -14 -20 -3 0 -20 33 -36 73 -24 59 -29 87 -30 157 0 78 3 89 30 132
65 102 232 133 418 79z"/>
<path d="M3635 2635 c-105 -22 -265 -84 -325 -126 -14 -9 -50 -33 -80 -53
-160 -105 -300 -239 -406 -388 -147 -206 -250 -571 -216 -768 10 -56 17 -69
49 -97 51 -43 110 -58 228 -57 268 2 525 96 805 296 45 33 256 238 301 293
134 167 229 395 231 554 1 100 -31 188 -90 250 -63 65 -87 79 -179 102 -100
24 -181 23 -318 -6z m344 -146 c48 -24 70 -43 93 -78 28 -44 29 -49 25 -141
-3 -78 -8 -105 -32 -153 -15 -31 -31 -59 -34 -62 -6 -3 -62 46 -98 87 -6 7
-37 38 -70 70 -32 31 -65 64 -74 75 -9 10 -25 25 -35 34 -10 9 -28 27 -40 40
-11 13 -35 36 -52 51 l-31 28 -80 -35 c-44 -18 -91 -41 -106 -51 -45 -29 -37
-9 12 32 71 58 98 74 187 105 67 24 97 29 177 29 88 0 101 -3 158 -31z"/>
<path d="M1970 845 c0 -48 166 -224 276 -293 63 -40 73 -43 122 -40 38 4 64
13 96 36 24 18 48 32 53 32 13 0 165 156 208 213 19 26 33 52 30 57 -8 13 -42
13 -49 1 -3 -5 -50 -31 -103 -57 l-98 -49 -145 0 -145 0 -115 58 c-63 31 -118
57 -122 57 -5 0 -8 -7 -8 -15z"/>
</g>
</svg>
